<svg viewBox="0 0 73 37" fill="none" xmlns="http://www.w3.org/2000/svg">
                <path fill-rule="evenodd" clip-rule="evenodd"
                  d="M14.6639 0.197406C7.90431 1.31421 2.59982 5.66459 0.482485 11.8289L0 13.2335V18.4838V23.7336L0.482485 25.1382C2.63113 31.3932 7.98402 35.7264 14.8636 36.7787C16.3125 37.0004 18.973 37.0249 37.1552 36.9832L57.801 36.936L59.5459 36.5013C68.4845 34.275 73 28.2279 73 18.4838C73 8.73967 68.4845 2.6926 59.5459 0.465869L57.801 0.0311772L36.8914 0.00540581C19.8635 -0.0156416 15.737 0.0200063 14.6639 0.197406ZM58.4429 2.37217C63.9974 3.6028 68.2098 7.10871 70.0591 12.0407L70.6255 13.5518V18.4838V23.4153L70.0591 24.9269C68.1965 29.8936 63.931 33.4202 58.3537 34.6036C57.217 34.8445 55.1357 34.8699 36.3643 34.8699H15.6302L14.049 34.5065C8.41811 33.214 4.07811 29.3438 2.50256 24.2108C1.91144 22.2848 1.91144 14.6824 2.50256 12.7563C4.25887 7.03354 9.38451 2.95763 15.801 2.18059C18.0346 1.91041 57.1506 2.08609 58.4429 2.37217ZM13.7852 6.61431C13.7852 6.69205 13.9418 7.0679 14.133 7.44933C14.6776 8.53607 14.6805 28.0595 14.1363 28.8679C13.5765 29.6991 13.5784 29.6995 16.6849 29.6995C18.2794 29.6995 19.5841 29.66 19.5841 29.6119C19.5841 29.5638 19.446 29.2953 19.2776 29.0152C19.019 28.5857 18.9616 27.9689 18.9113 25.0712L18.852 21.6362L19.4375 21.1886C22.5933 18.7772 24.1281 19.6225 27.5733 25.6713C29.5436 29.1312 30.4217 29.6995 33.7991 29.6995C36.1371 29.6995 37.066 29.4057 35.4696 29.1712C34.1113 28.9714 33.2863 28.0625 30.7391 23.9591C29.0459 21.2311 28.0245 20.0391 26.8432 19.412L26.0485 18.9906L27.3589 18.5581C30.9189 17.3829 32.1301 15.9877 32.1178 13.0746C32.1017 9.04249 29.6233 7.0825 23.9767 6.63492C21.4694 6.43647 13.7852 6.42058 13.7852 6.61431ZM24.2865 7.35097C26.4399 7.92999 28.1583 10.1662 28.3267 12.6094C28.5359 15.6454 26.9034 17.5293 22.8234 18.9606C21.1174 19.5589 19.6671 20.2221 19.4873 20.485C18.9379 21.29 18.881 20.6701 18.881 13.8701V7.10871H21.1335C22.6384 7.10871 23.6845 7.18903 24.2865 7.35097ZM43.2548 12.6833C38.4921 13.4083 35.2295 18.3944 36.3596 23.2225C38.0343 30.3782 48.4359 32.2368 53.0525 26.2052C53.6783 25.3873 53.3443 24.8826 52.7057 25.6807C50.9361 27.892 48.5664 28.5071 45.9405 27.4367C43.8042 26.566 41.3619 23.9132 40.5905 21.6254L40.47 21.2676H47.1588H53.8477V20.781C53.8477 15.3258 49.2059 11.7774 43.2548 12.6833ZM45.403 13.4049C47.6456 14.0075 49.3478 16.6179 49.4934 19.6766L49.5428 20.7109H44.8944H40.246L40.0055 19.6766C39.0363 15.5114 41.7049 12.4105 45.403 13.4049ZM57.3954 26.3774C56.8711 26.8413 56.734 27.2262 56.8085 28.029C56.9988 30.0878 60.2044 30.2137 60.6262 28.1789C61.0019 26.3645 58.7978 25.1356 57.3954 26.3774Z"
                  fill="#FBFBFB" />
              </svg>